<svg xmlns="http://www.w3.org/2000/svg" xmlns:xlink="http://www.w3.org/1999/xlink" width="192" zoomAndPan="magnify" viewBox="0 0 144 45.749998" height="61" preserveAspectRatio="xMidYMid meet" version="1.0"><defs><g/><clipPath id="b78ddbef55"><path d="M 74 1 L 88 1 L 88 20.660156 L 74 20.660156 Z M 74 1 " clip-rule="nonzero"/></clipPath></defs><path fill="#ffffff" d="M 1.117188 5.671875 L 5.257812 5.671875 L 7.554688 14.410156 L 10.28125 5.628906 L 13.78125 5.628906 L 16.527344 14.429688 L 18.890625 5.671875 L 22.945312 5.671875 L 18.460938 20.183594 L 14.789062 20.183594 L 12.019531 11.339844 L 9.207031 20.183594 L 5.539062 20.183594 Z M 1.117188 5.671875 " fill-opacity="1" fill-rule="nonzero"/><path fill="#ffffff" d="M 27.957031 20.355469 C 27.28125 20.355469 26.648438 20.257812 26.046875 20.074219 C 25.449219 19.878906 24.917969 19.59375 24.460938 19.21875 C 24.015625 18.847656 23.664062 18.390625 23.410156 17.84375 C 23.152344 17.285156 23.023438 16.652344 23.023438 15.933594 L 23.023438 15.890625 C 23.023438 15.105469 23.160156 14.425781 23.453125 13.851562 C 23.734375 13.28125 24.128906 12.808594 24.632812 12.433594 C 25.148438 12.046875 25.753906 11.761719 26.457031 11.574219 C 27.171875 11.394531 27.957031 11.296875 28.816406 11.296875 C 29.558594 11.296875 30.203125 11.355469 30.75 11.46875 C 31.292969 11.570312 31.824219 11.703125 32.335938 11.875 L 32.335938 11.640625 C 32.335938 10.78125 32.082031 10.132812 31.566406 9.6875 C 31.050781 9.246094 30.277344 9.019531 29.246094 9.019531 C 28.457031 9.019531 27.765625 9.085938 27.164062 9.214844 C 26.5625 9.34375 25.929688 9.535156 25.277344 9.792969 L 24.265625 6.679688 C 25.050781 6.335938 25.875 6.058594 26.734375 5.84375 C 27.59375 5.628906 28.628906 5.523438 29.847656 5.523438 C 30.976562 5.523438 31.933594 5.667969 32.722656 5.953125 C 33.523438 6.226562 34.183594 6.617188 34.699219 7.132812 C 35.242188 7.679688 35.632812 8.335938 35.878906 9.105469 C 36.136719 9.878906 36.265625 10.753906 36.265625 11.726562 L 36.265625 20.074219 L 32.316406 20.074219 L 32.316406 18.507812 C 31.8125 19.066406 31.210938 19.515625 30.511719 19.859375 C 29.808594 20.1875 28.957031 20.355469 27.957031 20.355469 Z M 29.203125 17.519531 C 30.160156 17.519531 30.933594 17.296875 31.523438 16.835938 C 32.105469 16.363281 32.402344 15.753906 32.402344 15.011719 L 32.402344 14.28125 C 32.042969 14.125 31.640625 13.996094 31.199219 13.894531 C 30.753906 13.796875 30.28125 13.742188 29.785156 13.742188 C 28.910156 13.742188 28.222656 13.914062 27.722656 14.257812 C 27.21875 14.589844 26.972656 15.074219 26.972656 15.71875 L 26.972656 15.78125 C 26.972656 16.339844 27.171875 16.769531 27.574219 17.070312 C 27.984375 17.371094 28.527344 17.519531 29.203125 17.519531 Z M 29.203125 17.519531 " fill-opacity="1" fill-rule="nonzero"/><path fill="#ffffff" d="M 43.285156 20.355469 C 42.265625 20.355469 41.222656 20.183594 40.152344 19.839844 C 39.089844 19.484375 38.078125 18.925781 37.125 18.164062 L 38.863281 15.480469 C 39.648438 16.054688 40.429688 16.484375 41.203125 16.769531 C 41.988281 17.058594 42.714844 17.199219 43.390625 17.199219 C 43.992188 17.199219 44.429688 17.109375 44.703125 16.921875 C 44.96875 16.722656 45.109375 16.457031 45.109375 16.125 L 45.109375 16.082031 C 45.109375 15.867188 45.027344 15.6875 44.875 15.523438 C 44.710938 15.351562 44.492188 15.214844 44.207031 15.09375 C 43.933594 14.984375 43.617188 14.875 43.261719 14.773438 C 42.902344 14.660156 42.523438 14.539062 42.125 14.410156 C 41.621094 14.269531 41.117188 14.097656 40.601562 13.894531 C 40.097656 13.679688 39.640625 13.410156 39.226562 13.078125 C 38.824219 12.75 38.488281 12.34375 38.21875 11.855469 C 37.960938 11.371094 37.832031 10.78125 37.832031 10.09375 L 37.832031 10.03125 C 37.832031 9.300781 37.96875 8.65625 38.242188 8.097656 C 38.523438 7.527344 38.90625 7.046875 39.378906 6.660156 C 39.851562 6.261719 40.398438 5.960938 41.03125 5.757812 C 41.675781 5.558594 42.367188 5.457031 43.113281 5.457031 C 44.015625 5.457031 44.9375 5.609375 45.882812 5.910156 C 46.828125 6.207031 47.691406 6.617188 48.480469 7.132812 L 46.914062 9.945312 C 46.195312 9.546875 45.496094 9.226562 44.808594 8.976562 C 44.132812 8.738281 43.542969 8.613281 43.027344 8.613281 C 42.523438 8.613281 42.148438 8.710938 41.890625 8.890625 C 41.644531 9.078125 41.523438 9.316406 41.523438 9.601562 L 41.523438 9.664062 C 41.523438 9.851562 41.601562 10.023438 41.761719 10.179688 C 41.917969 10.339844 42.132812 10.480469 42.40625 10.609375 C 42.671875 10.738281 42.984375 10.867188 43.328125 10.996094 C 43.683594 11.125 44.058594 11.253906 44.445312 11.382812 C 44.941406 11.542969 45.453125 11.734375 45.96875 11.960938 C 46.496094 12.175781 46.960938 12.449219 47.363281 12.777344 C 47.777344 13.09375 48.121094 13.484375 48.394531 13.957031 C 48.664062 14.417969 48.800781 14.984375 48.800781 15.652344 L 48.800781 15.695312 C 48.800781 16.5 48.65625 17.195312 48.371094 17.777344 C 48.097656 18.367188 47.710938 18.847656 47.214844 19.21875 C 46.707031 19.59375 46.125 19.878906 45.453125 20.074219 C 44.777344 20.257812 44.058594 20.355469 43.285156 20.355469 Z M 43.285156 20.355469 " fill-opacity="1" fill-rule="nonzero"/><path fill="#ffffff" d="M 55.058594 20.3125 C 54.425781 20.3125 53.855469 20.238281 53.339844 20.097656 C 52.824219 19.96875 52.378906 19.742188 52.011719 19.410156 C 51.652344 19.066406 51.367188 18.625 51.152344 18.078125 C 50.949219 17.539062 50.851562 16.84375 50.851562 15.996094 L 50.851562 9.171875 L 49.132812 9.171875 L 49.132812 5.671875 L 50.851562 5.671875 L 50.851562 2 L 54.929688 2 L 54.929688 5.671875 L 58.320312 5.671875 L 58.320312 9.171875 L 54.929688 9.171875 L 54.929688 15.332031 C 54.929688 16.265625 55.371094 16.726562 56.261719 16.726562 C 56.972656 16.726562 57.644531 16.554688 58.277344 16.210938 L 58.277344 19.472656 C 57.847656 19.730469 57.367188 19.9375 56.839844 20.074219 C 56.324219 20.230469 55.730469 20.3125 55.058594 20.3125 Z M 55.058594 20.3125 " fill-opacity="1" fill-rule="nonzero"/><path fill="#ffffff" d="M 66.621094 20.398438 C 65.550781 20.398438 64.546875 20.214844 63.617188 19.859375 C 62.699219 19.507812 61.90625 18.996094 61.234375 18.335938 C 60.558594 17.667969 60.039062 16.878906 59.667969 15.976562 C 59.292969 15.074219 59.109375 14.066406 59.109375 12.949219 L 59.109375 12.90625 C 59.109375 11.890625 59.28125 10.925781 59.625 10.007812 C 59.96875 9.097656 60.453125 8.300781 61.085938 7.625 C 61.710938 6.9375 62.457031 6.402344 63.316406 6.015625 C 64.1875 5.617188 65.152344 5.414062 66.214844 5.414062 C 67.417969 5.414062 68.453125 5.628906 69.328125 6.058594 C 70.195312 6.488281 70.925781 7.066406 71.515625 7.796875 C 72.101562 8.515625 72.53125 9.34375 72.804688 10.289062 C 73.089844 11.230469 73.234375 12.214844 73.234375 13.226562 C 73.234375 13.390625 73.222656 13.5625 73.210938 13.742188 C 73.195312 13.914062 73.179688 14.101562 73.167969 14.300781 L 63.144531 14.300781 C 63.34375 15.234375 63.75 15.933594 64.367188 16.40625 C 64.996094 16.878906 65.765625 17.113281 66.664062 17.113281 C 67.351562 17.113281 67.960938 17 68.492188 16.769531 C 69.03125 16.542969 69.589844 16.167969 70.164062 15.652344 L 72.503906 17.714844 C 71.816406 18.5625 70.984375 19.21875 70.015625 19.6875 C 69.054688 20.160156 67.921875 20.398438 66.621094 20.398438 Z M 69.242188 11.746094 C 69.125 10.835938 68.800781 10.09375 68.277344 9.535156 C 67.761719 8.976562 67.074219 8.699219 66.214844 8.699219 C 65.355469 8.699219 64.660156 8.976562 64.132812 9.535156 C 63.601562 10.082031 63.257812 10.820312 63.101562 11.746094 Z M 69.242188 11.746094 " fill-opacity="1" fill-rule="nonzero"/><g clip-path="url(#b78ddbef55)"><path fill="#ffffff" d="M 74.195312 19.023438 L 81.214844 12.691406 C 81.96875 11.992188 82.613281 11.355469 83.144531 10.78125 C 83.671875 10.210938 84.101562 9.675781 84.433594 9.171875 C 84.761719 8.671875 84.996094 8.195312 85.140625 7.734375 C 85.28125 7.261719 85.355469 6.777344 85.355469 6.273438 C 85.355469 5.660156 85.238281 5.101562 85.011719 4.597656 C 84.78125 4.101562 84.476562 3.675781 84.089844 3.332031 C 83.703125 2.988281 83.253906 2.726562 82.738281 2.539062 C 82.222656 2.339844 81.6875 2.238281 81.128906 2.238281 C 79.925781 2.238281 78.902344 2.539062 78.058594 3.140625 C 77.210938 3.742188 76.394531 4.609375 75.613281 5.738281 L 74.582031 5.027344 C 74.976562 4.417969 75.402344 3.863281 75.847656 3.375 C 76.289062 2.875 76.769531 2.453125 77.285156 2.109375 C 77.8125 1.753906 78.402344 1.480469 79.046875 1.292969 C 79.699219 1.109375 80.441406 1.015625 81.257812 1.015625 C 82.054688 1.015625 82.792969 1.144531 83.46875 1.402344 C 84.15625 1.660156 84.738281 2.023438 85.226562 2.496094 C 85.726562 2.957031 86.117188 3.5 86.410156 4.125 C 86.691406 4.761719 86.835938 5.4375 86.835938 6.167969 L 86.835938 6.207031 C 86.835938 6.867188 86.742188 7.476562 86.558594 8.035156 C 86.386719 8.589844 86.109375 9.160156 85.722656 9.730469 C 85.335938 10.289062 84.847656 10.878906 84.261719 11.488281 C 83.671875 12.089844 82.964844 12.773438 82.136719 13.527344 L 76.40625 18.722656 L 87.03125 18.722656 L 87.03125 20.074219 L 74.195312 20.074219 Z M 74.195312 19.023438 " fill-opacity="1" fill-rule="nonzero"/></g><path fill="#ffffff" d="M 95.871094 20.398438 C 94.800781 20.398438 93.796875 20.214844 92.867188 19.859375 C 91.949219 19.507812 91.15625 18.996094 90.484375 18.335938 C 89.808594 17.667969 89.289062 16.878906 88.917969 15.976562 C 88.542969 15.074219 88.359375 14.066406 88.359375 12.949219 L 88.359375 12.90625 C 88.359375 11.890625 88.53125 10.925781 88.875 10.007812 C 89.21875 9.097656 89.699219 8.300781 90.335938 7.625 C 90.960938 6.9375 91.707031 6.402344 92.566406 6.015625 C 93.4375 5.617188 94.402344 5.414062 95.464844 5.414062 C 96.667969 5.414062 97.703125 5.628906 98.578125 6.058594 C 99.445312 6.488281 100.175781 7.066406 100.765625 7.796875 C 101.351562 8.515625 101.78125 9.34375 102.054688 10.289062 C 102.339844 11.230469 102.484375 12.214844 102.484375 13.226562 C 102.484375 13.390625 102.472656 13.5625 102.460938 13.742188 C 102.445312 13.914062 102.429688 14.101562 102.417969 14.300781 L 92.394531 14.300781 C 92.59375 15.234375 93 15.933594 93.617188 16.40625 C 94.246094 16.878906 95.011719 17.113281 95.914062 17.113281 C 96.601562 17.113281 97.207031 17 97.738281 16.769531 C 98.28125 16.542969 98.839844 16.167969 99.414062 15.652344 L 101.753906 17.714844 C 101.066406 18.5625 100.234375 19.21875 99.265625 19.6875 C 98.304688 20.160156 97.171875 20.398438 95.871094 20.398438 Z M 98.492188 11.746094 C 98.371094 10.835938 98.050781 10.09375 97.523438 9.535156 C 97.011719 8.976562 96.324219 8.699219 95.464844 8.699219 C 94.605469 8.699219 93.90625 8.976562 93.382812 9.535156 C 92.851562 10.082031 92.507812 10.820312 92.351562 11.746094 Z M 98.492188 11.746094 " fill-opacity="1" fill-rule="nonzero"/><path fill="#ffffff" d="M 108.050781 20.355469 C 107.375 20.355469 106.742188 20.257812 106.140625 20.074219 C 105.539062 19.878906 105.007812 19.59375 104.550781 19.21875 C 104.105469 18.847656 103.757812 18.390625 103.5 17.84375 C 103.242188 17.285156 103.113281 16.652344 103.113281 15.933594 L 103.113281 15.890625 C 103.113281 15.105469 103.253906 14.425781 103.542969 13.851562 C 103.828125 13.28125 104.21875 12.808594 104.722656 12.433594 C 105.238281 12.046875 105.84375 11.761719 106.546875 11.574219 C 107.261719 11.394531 108.050781 11.296875 108.910156 11.296875 C 109.648438 11.296875 110.292969 11.355469 110.839844 11.46875 C 111.382812 11.570312 111.914062 11.703125 112.429688 11.875 L 112.429688 11.640625 C 112.429688 10.78125 112.171875 10.132812 111.65625 9.6875 C 111.140625 9.246094 110.367188 9.019531 109.339844 9.019531 C 108.550781 9.019531 107.859375 9.085938 107.257812 9.214844 C 106.65625 9.34375 106.023438 9.535156 105.367188 9.792969 L 104.359375 6.679688 C 105.140625 6.335938 105.96875 6.058594 106.828125 5.84375 C 107.6875 5.628906 108.722656 5.523438 109.941406 5.523438 C 111.066406 5.523438 112.027344 5.667969 112.816406 5.953125 C 113.617188 6.226562 114.277344 6.617188 114.789062 7.132812 C 115.332031 7.679688 115.726562 8.335938 115.972656 9.105469 C 116.230469 9.878906 116.359375 10.753906 116.359375 11.726562 L 116.359375 20.074219 L 112.410156 20.074219 L 112.410156 18.507812 C 111.902344 19.066406 111.304688 19.515625 110.605469 19.859375 C 109.902344 20.1875 109.050781 20.355469 108.050781 20.355469 Z M 109.296875 17.519531 C 110.25 17.519531 111.023438 17.296875 111.613281 16.835938 C 112.199219 16.363281 112.492188 15.753906 112.492188 15.011719 L 112.492188 14.28125 C 112.132812 14.125 111.730469 13.996094 111.292969 13.894531 C 110.847656 13.796875 110.375 13.742188 109.875 13.742188 C 109 13.742188 108.3125 13.914062 107.816406 14.257812 C 107.308594 14.589844 107.0625 15.074219 107.0625 15.71875 L 107.0625 15.78125 C 107.0625 16.339844 107.261719 16.769531 107.664062 17.070312 C 108.078125 17.371094 108.621094 17.519531 109.296875 17.519531 Z M 109.296875 17.519531 " fill-opacity="1" fill-rule="nonzero"/><path fill="#ffffff" d="M 118.332031 5.671875 L 122.414062 5.671875 L 122.414062 8.589844 C 122.824219 7.605469 123.390625 6.820312 124.109375 6.230469 C 124.820312 5.628906 125.789062 5.359375 127.007812 5.414062 L 127.007812 9.6875 L 126.792969 9.6875 C 125.429688 9.6875 124.355469 10.105469 123.570312 10.929688 C 122.796875 11.746094 122.414062 13.023438 122.414062 14.753906 L 122.414062 20.074219 L 118.332031 20.074219 Z M 118.332031 5.671875 " fill-opacity="1" fill-rule="nonzero"/><path fill="#ffffff" d="M 128.023438 5.671875 L 132.101562 5.671875 L 132.101562 7.734375 C 132.328125 7.421875 132.578125 7.125 132.851562 6.851562 C 133.136719 6.570312 133.453125 6.316406 133.796875 6.101562 C 134.140625 5.886719 134.511719 5.726562 134.914062 5.609375 C 135.328125 5.480469 135.800781 5.414062 136.332031 5.414062 C 137.875 5.414062 139.066406 5.898438 139.914062 6.851562 C 140.773438 7.796875 141.203125 9.101562 141.203125 10.757812 L 141.203125 20.074219 L 137.125 20.074219 L 137.125 12.046875 C 137.125 11.078125 136.910156 10.347656 136.480469 9.859375 C 136.050781 9.375 135.441406 9.128906 134.65625 9.128906 C 133.867188 9.128906 133.246094 9.375 132.789062 9.859375 C 132.328125 10.347656 132.101562 11.078125 132.101562 12.046875 L 132.101562 20.074219 L 128.023438 20.074219 Z M 128.023438 5.671875 " fill-opacity="1" fill-rule="nonzero"/><path fill="#ffffff" d="M 71.511719 31.777344 L 73.058594 31.777344 L 74.34375 41.519531 L 74.539062 41.519531 L 76.449219 31.777344 L 78.378906 31.777344 L 80.289062 41.519531 L 80.503906 41.519531 L 81.792969 31.777344 L 83.296875 31.777344 L 81.558594 43.046875 L 79.304688 43.046875 L 77.5 33.621094 L 77.328125 33.621094 L 75.503906 43.046875 L 73.230469 43.046875 Z M 71.511719 31.777344 " fill-opacity="1" fill-rule="nonzero"/><path fill="#ffffff" d="M 93.492188 43.046875 C 92.816406 43.046875 92.332031 42.875 92.03125 42.53125 C 91.742188 42.175781 91.5625 41.734375 91.496094 41.222656 L 91.386719 41.222656 C 91.128906 41.863281 90.726562 42.375 90.183594 42.746094 C 89.636719 43.113281 88.90625 43.304688 87.996094 43.304688 C 86.820312 43.304688 85.882812 43.003906 85.183594 42.402344 C 84.480469 41.789062 84.132812 40.953125 84.132812 39.890625 C 84.132812 38.832031 84.507812 38.023438 85.269531 37.464844 C 86.042969 36.894531 87.277344 36.605469 88.984375 36.605469 L 91.386719 36.605469 L 91.386719 35.488281 C 91.386719 34.664062 91.152344 34.039062 90.679688 33.621094 C 90.21875 33.207031 89.5625 33 88.703125 33 C 87.941406 33 87.320312 33.148438 86.835938 33.449219 C 86.363281 33.75 85.976562 34.152344 85.675781 34.652344 L 84.496094 33.792969 C 84.652344 33.492188 84.851562 33.207031 85.097656 32.933594 C 85.339844 32.667969 85.640625 32.421875 86 32.207031 C 86.371094 31.992188 86.78125 31.828125 87.246094 31.710938 C 87.714844 31.582031 88.238281 31.519531 88.8125 31.519531 C 90.125 31.519531 91.171875 31.855469 91.945312 32.527344 C 92.730469 33.203125 93.125 34.132812 93.125 35.316406 L 93.125 41.519531 L 94.691406 41.519531 L 94.691406 43.046875 Z M 88.296875 41.84375 C 88.753906 41.84375 89.164062 41.796875 89.542969 41.691406 C 89.910156 41.582031 90.234375 41.429688 90.507812 41.242188 C 90.773438 41.058594 90.988281 40.84375 91.152344 40.597656 C 91.304688 40.339844 91.386719 40.0625 91.386719 39.761719 L 91.386719 37.914062 L 88.984375 37.914062 C 87.9375 37.914062 87.167969 38.066406 86.6875 38.367188 C 86.214844 38.65625 85.976562 39.070312 85.976562 39.609375 L 85.976562 40.082031 C 85.976562 40.65625 86.183594 41.09375 86.601562 41.390625 C 87.011719 41.691406 87.578125 41.84375 88.296875 41.84375 Z M 88.296875 41.84375 " fill-opacity="1" fill-rule="nonzero"/><path fill="#ffffff" d="M 96.277344 41.5625 L 100.207031 41.5625 L 100.207031 28.382812 L 96.277344 28.382812 L 96.277344 26.882812 L 101.964844 26.882812 L 101.964844 41.5625 L 105.894531 41.5625 L 105.894531 43.046875 L 96.277344 43.046875 Z M 96.277344 41.5625 " fill-opacity="1" fill-rule="nonzero"/><path fill="#ffffff" d="M 108.125 41.5625 L 112.054688 41.5625 L 112.054688 28.382812 L 108.125 28.382812 L 108.125 26.882812 L 113.8125 26.882812 L 113.8125 41.5625 L 117.742188 41.5625 L 117.742188 43.046875 L 108.125 43.046875 Z M 108.125 41.5625 " fill-opacity="1" fill-rule="nonzero"/><path fill="#ffffff" d="M 124.976562 43.304688 C 124.160156 43.304688 123.429688 43.164062 122.785156 42.894531 C 122.140625 42.625 121.589844 42.230469 121.132812 41.714844 C 120.671875 41.1875 120.316406 40.566406 120.058594 39.847656 C 119.8125 39.132812 119.695312 38.332031 119.695312 37.441406 C 119.695312 36.542969 119.824219 35.726562 120.082031 34.996094 C 120.339844 34.265625 120.6875 33.644531 121.132812 33.128906 C 121.589844 32.613281 122.128906 32.222656 122.765625 31.949219 C 123.390625 31.664062 124.09375 31.519531 124.867188 31.519531 C 125.625 31.519531 126.3125 31.664062 126.929688 31.949219 C 127.539062 32.222656 128.070312 32.601562 128.515625 33.085938 C 128.957031 33.574219 129.292969 34.152344 129.527344 34.824219 C 129.75 35.484375 129.867188 36.214844 129.867188 37.011719 L 129.867188 37.851562 L 121.539062 37.851562 L 121.539062 38.367188 C 121.539062 38.871094 121.617188 39.332031 121.777344 39.761719 C 121.933594 40.179688 122.164062 40.542969 122.464844 40.855469 C 122.765625 41.15625 123.128906 41.390625 123.558594 41.5625 C 123.988281 41.726562 124.460938 41.800781 124.976562 41.800781 C 125.730469 41.800781 126.382812 41.628906 126.929688 41.285156 C 127.488281 40.929688 127.914062 40.449219 128.214844 39.847656 L 129.503906 40.707031 C 129.160156 41.46875 128.601562 42.089844 127.828125 42.574219 C 127.058594 43.054688 126.101562 43.304688 124.976562 43.304688 Z M 124.867188 32.957031 C 124.394531 32.957031 123.949219 33.054688 123.535156 33.234375 C 123.132812 33.40625 122.785156 33.644531 122.484375 33.945312 C 122.183594 34.246094 121.949219 34.605469 121.777344 35.015625 C 121.617188 35.4375 121.539062 35.890625 121.539062 36.390625 L 121.539062 36.542969 L 128 36.542969 L 128 36.304688 C 128 35.804688 127.921875 35.355469 127.765625 34.953125 C 127.605469 34.539062 127.390625 34.191406 127.121094 33.902344 C 126.863281 33.601562 126.542969 33.375 126.15625 33.214844 C 125.769531 33.042969 125.339844 32.957031 124.867188 32.957031 Z M 124.867188 32.957031 " fill-opacity="1" fill-rule="nonzero"/><path fill="#ffffff" d="M 137.1875 43.046875 C 136.328125 43.046875 135.695312 42.808594 135.296875 42.335938 C 134.894531 41.855469 134.695312 41.230469 134.695312 40.46875 L 134.695312 33.257812 L 130.941406 33.257812 L 130.941406 31.777344 L 133.730469 31.777344 C 134.101562 31.777344 134.363281 31.707031 134.523438 31.5625 C 134.679688 31.40625 134.761719 31.132812 134.761719 30.746094 L 134.761719 27.804688 L 136.433594 27.804688 L 136.433594 31.777344 L 141.566406 31.777344 L 141.566406 33.257812 L 136.433594 33.257812 L 136.433594 41.5625 L 141.566406 41.5625 L 141.566406 43.046875 Z M 137.1875 43.046875 " fill-opacity="1" fill-rule="nonzero"/><g fill="#ffffff" fill-opacity="1"><g transform="translate(42.214933, 33.018807)"><g><path d="M 1.578125 -4.1875 C 1.753906 -4.488281 2.007812 -4.734375 2.34375 -4.921875 C 2.675781 -5.117188 3.0625 -5.21875 3.5 -5.21875 C 3.957031 -5.21875 4.367188 -5.109375 4.734375 -4.890625 C 5.109375 -4.671875 5.398438 -4.363281 5.609375 -3.96875 C 5.828125 -3.570312 5.9375 -3.113281 5.9375 -2.59375 C 5.9375 -2.070312 5.828125 -1.609375 5.609375 -1.203125 C 5.398438 -0.796875 5.109375 -0.476562 4.734375 -0.25 C 4.367188 -0.03125 3.957031 0.078125 3.5 0.078125 C 3.050781 0.078125 2.660156 -0.015625 2.328125 -0.203125 C 1.992188 -0.398438 1.742188 -0.648438 1.578125 -0.953125 L 1.578125 0 L 0.71875 0 L 0.71875 -6.9375 L 1.578125 -6.9375 Z M 5.0625 -2.59375 C 5.0625 -2.976562 4.984375 -3.3125 4.828125 -3.59375 C 4.671875 -3.882812 4.457031 -4.101562 4.1875 -4.25 C 3.925781 -4.40625 3.632812 -4.484375 3.3125 -4.484375 C 3 -4.484375 2.707031 -4.40625 2.4375 -4.25 C 2.175781 -4.09375 1.96875 -3.867188 1.8125 -3.578125 C 1.65625 -3.296875 1.578125 -2.960938 1.578125 -2.578125 C 1.578125 -2.191406 1.65625 -1.851562 1.8125 -1.5625 C 1.96875 -1.269531 2.175781 -1.046875 2.4375 -0.890625 C 2.707031 -0.742188 3 -0.671875 3.3125 -0.671875 C 3.632812 -0.671875 3.925781 -0.742188 4.1875 -0.890625 C 4.457031 -1.046875 4.671875 -1.269531 4.828125 -1.5625 C 4.984375 -1.851562 5.0625 -2.195312 5.0625 -2.59375 Z M 5.0625 -2.59375 "/></g></g></g><g fill="#ffffff" fill-opacity="1"><g transform="translate(48.555945, 33.018807)"><g><path d="M 5.40625 -2.765625 C 5.40625 -2.597656 5.394531 -2.425781 5.375 -2.25 L 1.28125 -2.25 C 1.3125 -1.738281 1.484375 -1.34375 1.796875 -1.0625 C 2.109375 -0.78125 2.488281 -0.640625 2.9375 -0.640625 C 3.3125 -0.640625 3.617188 -0.722656 3.859375 -0.890625 C 4.109375 -1.066406 4.285156 -1.296875 4.390625 -1.578125 L 5.3125 -1.578125 C 5.164062 -1.085938 4.882812 -0.6875 4.46875 -0.375 C 4.0625 -0.0703125 3.550781 0.078125 2.9375 0.078125 C 2.457031 0.078125 2.023438 -0.03125 1.640625 -0.25 C 1.253906 -0.46875 0.953125 -0.773438 0.734375 -1.171875 C 0.515625 -1.578125 0.40625 -2.046875 0.40625 -2.578125 C 0.40625 -3.109375 0.507812 -3.570312 0.71875 -3.96875 C 0.9375 -4.375 1.234375 -4.679688 1.609375 -4.890625 C 1.992188 -5.109375 2.4375 -5.21875 2.9375 -5.21875 C 3.425781 -5.21875 3.859375 -5.109375 4.234375 -4.890625 C 4.609375 -4.679688 4.894531 -4.390625 5.09375 -4.015625 C 5.300781 -3.648438 5.40625 -3.234375 5.40625 -2.765625 Z M 4.53125 -2.9375 C 4.53125 -3.269531 4.457031 -3.550781 4.3125 -3.78125 C 4.164062 -4.019531 3.96875 -4.195312 3.71875 -4.3125 C 3.476562 -4.4375 3.207031 -4.5 2.90625 -4.5 C 2.476562 -4.5 2.109375 -4.359375 1.796875 -4.078125 C 1.492188 -3.804688 1.320312 -3.425781 1.28125 -2.9375 Z M 4.53125 -2.9375 "/></g></g></g><g fill="#ffffff" fill-opacity="1"><g transform="translate(54.371665, 33.018807)"><g><path d="M 1.765625 -4.4375 L 1.765625 -1.40625 C 1.765625 -1.15625 1.816406 -0.976562 1.921875 -0.875 C 2.023438 -0.769531 2.207031 -0.71875 2.46875 -0.71875 L 3.109375 -0.71875 L 3.109375 0 L 2.328125 0 C 1.859375 0 1.503906 -0.109375 1.265625 -0.328125 C 1.023438 -0.546875 0.90625 -0.90625 0.90625 -1.40625 L 0.90625 -4.4375 L 0.25 -4.4375 L 0.25 -5.140625 L 0.90625 -5.140625 L 0.90625 -6.4375 L 1.765625 -6.4375 L 1.765625 -5.140625 L 3.109375 -5.140625 L 3.109375 -4.4375 Z M 1.765625 -4.4375 "/></g></g></g><g fill="#ffffff" fill-opacity="1"><g transform="translate(57.786056, 33.018807)"><g><path d="M 0.40625 -2.59375 C 0.40625 -3.113281 0.507812 -3.570312 0.71875 -3.96875 C 0.9375 -4.363281 1.226562 -4.671875 1.59375 -4.890625 C 1.96875 -5.109375 2.382812 -5.21875 2.84375 -5.21875 C 3.289062 -5.21875 3.679688 -5.117188 4.015625 -4.921875 C 4.347656 -4.734375 4.59375 -4.492188 4.75 -4.203125 L 4.75 -5.140625 L 5.609375 -5.140625 L 5.609375 0 L 4.75 0 L 4.75 -0.953125 C 4.582031 -0.648438 4.332031 -0.398438 4 -0.203125 C 3.664062 -0.015625 3.273438 0.078125 2.828125 0.078125 C 2.367188 0.078125 1.957031 -0.03125 1.59375 -0.25 C 1.226562 -0.476562 0.9375 -0.796875 0.71875 -1.203125 C 0.507812 -1.609375 0.40625 -2.070312 0.40625 -2.59375 Z M 4.75 -2.578125 C 4.75 -2.960938 4.671875 -3.296875 4.515625 -3.578125 C 4.359375 -3.867188 4.144531 -4.09375 3.875 -4.25 C 3.613281 -4.40625 3.328125 -4.484375 3.015625 -4.484375 C 2.691406 -4.484375 2.398438 -4.40625 2.140625 -4.25 C 1.878906 -4.101562 1.671875 -3.882812 1.515625 -3.59375 C 1.359375 -3.3125 1.28125 -2.976562 1.28125 -2.59375 C 1.28125 -2.195312 1.359375 -1.851562 1.515625 -1.5625 C 1.671875 -1.269531 1.878906 -1.046875 2.140625 -0.890625 C 2.398438 -0.742188 2.691406 -0.671875 3.015625 -0.671875 C 3.328125 -0.671875 3.613281 -0.742188 3.875 -0.890625 C 4.144531 -1.046875 4.359375 -1.269531 4.515625 -1.5625 C 4.671875 -1.851562 4.75 -2.191406 4.75 -2.578125 Z M 4.75 -2.578125 "/></g></g></g></svg>