<svg xmlns="http://www.w3.org/2000/svg" xmlns:xlink="http://www.w3.org/1999/xlink" width="192" zoomAndPan="magnify" viewBox="0 0 144 45.749998" height="61" preserveAspectRatio="xMidYMid meet" version="1.0"><defs><g/><clipPath id="1cb31cd1bc"><path d="M 74 1 L 88 1 L 88 20.6875 L 74 20.6875 Z M 74 1 " clip-rule="nonzero"/></clipPath></defs><path fill="#000000" d="M 1.117188 5.679688 L 5.257812 5.679688 L 7.554688 14.425781 L 10.28125 5.636719 L 13.78125 5.636719 L 16.527344 14.449219 L 18.890625 5.679688 L 22.945312 5.679688 L 18.460938 20.207031 L 14.789062 20.207031 L 12.019531 11.355469 L 9.207031 20.207031 L 5.539062 20.207031 Z M 1.117188 5.679688 " fill-opacity="1" fill-rule="nonzero"/><path fill="#000000" d="M 27.957031 20.378906 C 27.28125 20.378906 26.648438 20.285156 26.046875 20.101562 C 25.449219 19.902344 24.917969 19.617188 24.460938 19.242188 C 24.015625 18.871094 23.664062 18.414062 23.410156 17.867188 C 23.152344 17.308594 23.023438 16.671875 23.023438 15.953125 L 23.023438 15.910156 C 23.023438 15.125 23.160156 14.441406 23.453125 13.867188 C 23.734375 13.300781 24.128906 12.824219 24.632812 12.449219 C 25.148438 12.0625 25.753906 11.777344 26.457031 11.589844 C 27.171875 11.40625 27.957031 11.3125 28.816406 11.3125 C 29.558594 11.3125 30.203125 11.371094 30.75 11.484375 C 31.292969 11.585938 31.824219 11.71875 32.335938 11.890625 L 32.335938 11.65625 C 32.335938 10.792969 32.082031 10.144531 31.566406 9.699219 C 31.050781 9.257812 30.277344 9.03125 29.246094 9.03125 C 28.457031 9.03125 27.765625 9.097656 27.164062 9.226562 C 26.5625 9.355469 25.929688 9.546875 25.277344 9.804688 L 24.265625 6.691406 C 25.050781 6.347656 25.875 6.066406 26.734375 5.851562 C 27.59375 5.636719 28.628906 5.527344 29.847656 5.527344 C 30.976562 5.527344 31.933594 5.675781 32.722656 5.960938 C 33.523438 6.234375 34.183594 6.625 34.699219 7.140625 C 35.242188 7.6875 35.632812 8.34375 35.878906 9.117188 C 36.136719 9.890625 36.265625 10.769531 36.265625 11.742188 L 36.265625 20.101562 L 32.316406 20.101562 L 32.316406 18.53125 C 31.8125 19.089844 31.210938 19.542969 30.511719 19.886719 C 29.808594 20.214844 28.957031 20.378906 27.957031 20.378906 Z M 29.203125 17.542969 C 30.160156 17.542969 30.933594 17.316406 31.523438 16.855469 C 32.105469 16.382812 32.402344 15.777344 32.402344 15.027344 L 32.402344 14.296875 C 32.042969 14.140625 31.640625 14.011719 31.199219 13.910156 C 30.753906 13.816406 30.28125 13.761719 29.785156 13.761719 C 28.910156 13.761719 28.222656 13.933594 27.722656 14.277344 C 27.21875 14.609375 26.972656 15.09375 26.972656 15.738281 L 26.972656 15.804688 C 26.972656 16.363281 27.171875 16.792969 27.574219 17.09375 C 27.984375 17.394531 28.527344 17.542969 29.203125 17.542969 Z M 29.203125 17.542969 " fill-opacity="1" fill-rule="nonzero"/><path fill="#000000" d="M 43.285156 20.378906 C 42.265625 20.378906 41.222656 20.207031 40.152344 19.863281 C 39.089844 19.511719 38.078125 18.953125 37.125 18.1875 L 38.863281 15.5 C 39.648438 16.078125 40.429688 16.507812 41.203125 16.792969 C 41.988281 17.082031 42.714844 17.222656 43.390625 17.222656 C 43.992188 17.222656 44.429688 17.128906 44.703125 16.941406 C 44.96875 16.742188 45.109375 16.480469 45.109375 16.148438 L 45.109375 16.105469 C 45.109375 15.890625 45.027344 15.707031 44.875 15.542969 C 44.710938 15.371094 44.492188 15.234375 44.207031 15.113281 C 43.933594 15.003906 43.617188 14.894531 43.261719 14.792969 C 42.902344 14.679688 42.523438 14.554688 42.125 14.425781 C 41.621094 14.289062 41.117188 14.117188 40.601562 13.910156 C 40.097656 13.695312 39.640625 13.429688 39.226562 13.09375 C 38.824219 12.765625 38.488281 12.359375 38.21875 11.871094 C 37.960938 11.386719 37.832031 10.792969 37.832031 10.105469 L 37.832031 10.042969 C 37.832031 9.3125 37.96875 8.667969 38.242188 8.109375 C 38.523438 7.539062 38.90625 7.054688 39.378906 6.667969 C 39.851562 6.269531 40.398438 5.96875 41.03125 5.765625 C 41.675781 5.566406 42.367188 5.464844 43.113281 5.464844 C 44.015625 5.464844 44.9375 5.613281 45.882812 5.917969 C 46.828125 6.21875 47.691406 6.625 48.480469 7.140625 L 46.914062 9.957031 C 46.195312 9.558594 45.496094 9.238281 44.808594 8.988281 C 44.132812 8.746094 43.542969 8.625 43.027344 8.625 C 42.523438 8.625 42.148438 8.722656 41.890625 8.902344 C 41.644531 9.089844 41.523438 9.328125 41.523438 9.613281 L 41.523438 9.675781 C 41.523438 9.867188 41.601562 10.039062 41.761719 10.191406 C 41.917969 10.355469 42.132812 10.492188 42.40625 10.621094 C 42.671875 10.75 42.984375 10.882812 43.328125 11.011719 C 43.683594 11.140625 44.058594 11.269531 44.445312 11.398438 C 44.941406 11.558594 45.453125 11.75 45.96875 11.976562 C 46.496094 12.191406 46.960938 12.464844 47.363281 12.792969 C 47.777344 13.109375 48.121094 13.503906 48.394531 13.976562 C 48.664062 14.4375 48.800781 15.003906 48.800781 15.671875 L 48.800781 15.71875 C 48.800781 16.523438 48.65625 17.214844 48.371094 17.800781 C 48.097656 18.394531 47.710938 18.871094 47.214844 19.242188 C 46.707031 19.617188 46.125 19.902344 45.453125 20.101562 C 44.777344 20.285156 44.058594 20.378906 43.285156 20.378906 Z M 43.285156 20.378906 " fill-opacity="1" fill-rule="nonzero"/><path fill="#000000" d="M 55.058594 20.335938 C 54.425781 20.335938 53.855469 20.261719 53.339844 20.121094 C 52.824219 19.992188 52.378906 19.769531 52.011719 19.433594 C 51.652344 19.089844 51.367188 18.652344 51.152344 18.101562 C 50.949219 17.558594 50.851562 16.867188 50.851562 16.019531 L 50.851562 9.183594 L 49.132812 9.183594 L 49.132812 5.679688 L 50.851562 5.679688 L 50.851562 2.003906 L 54.929688 2.003906 L 54.929688 5.679688 L 58.320312 5.679688 L 58.320312 9.183594 L 54.929688 9.183594 L 54.929688 15.351562 C 54.929688 16.285156 55.371094 16.75 56.261719 16.75 C 56.972656 16.75 57.644531 16.578125 58.277344 16.234375 L 58.277344 19.5 C 57.847656 19.757812 57.367188 19.960938 56.839844 20.101562 C 56.324219 20.257812 55.730469 20.335938 55.058594 20.335938 Z M 55.058594 20.335938 " fill-opacity="1" fill-rule="nonzero"/><path fill="#000000" d="M 66.621094 20.421875 C 65.550781 20.421875 64.546875 20.242188 63.617188 19.886719 C 62.699219 19.53125 61.90625 19.019531 61.234375 18.359375 C 60.558594 17.6875 60.039062 16.898438 59.667969 15.996094 C 59.292969 15.09375 59.109375 14.082031 59.109375 12.964844 L 59.109375 12.921875 C 59.109375 11.90625 59.28125 10.941406 59.625 10.019531 C 59.96875 9.109375 60.453125 8.3125 61.085938 7.636719 C 61.710938 6.949219 62.457031 6.410156 63.316406 6.023438 C 64.1875 5.625 65.152344 5.421875 66.214844 5.421875 C 67.417969 5.421875 68.453125 5.636719 69.328125 6.066406 C 70.195312 6.496094 70.925781 7.078125 71.515625 7.808594 C 72.101562 8.527344 72.53125 9.355469 72.804688 10.300781 C 73.089844 11.246094 73.234375 12.230469 73.234375 13.246094 C 73.234375 13.40625 73.222656 13.578125 73.210938 13.761719 C 73.195312 13.933594 73.179688 14.121094 73.167969 14.320312 L 63.144531 14.320312 C 63.34375 15.253906 63.75 15.953125 64.367188 16.425781 C 64.996094 16.898438 65.765625 17.136719 66.664062 17.136719 C 67.351562 17.136719 67.960938 17.023438 68.492188 16.792969 C 69.03125 16.566406 69.589844 16.191406 70.164062 15.671875 L 72.503906 17.738281 C 71.816406 18.585938 70.984375 19.242188 70.015625 19.714844 C 69.054688 20.1875 67.921875 20.421875 66.621094 20.421875 Z M 69.242188 11.761719 C 69.125 10.847656 68.800781 10.105469 68.277344 9.546875 C 67.761719 8.988281 67.074219 8.710938 66.214844 8.710938 C 65.355469 8.710938 64.660156 8.988281 64.132812 9.546875 C 63.601562 10.097656 63.257812 10.832031 63.101562 11.761719 Z M 69.242188 11.761719 " fill-opacity="1" fill-rule="nonzero"/><g clip-path="url(#1cb31cd1bc)"><path fill="#000000" d="M 74.195312 19.046875 L 81.214844 12.707031 C 81.96875 12.007812 82.613281 11.371094 83.144531 10.792969 C 83.671875 10.226562 84.101562 9.6875 84.433594 9.183594 C 84.761719 8.683594 84.996094 8.203125 85.140625 7.742188 C 85.28125 7.269531 85.355469 6.785156 85.355469 6.28125 C 85.355469 5.667969 85.238281 5.109375 85.011719 4.605469 C 84.78125 4.105469 84.476562 3.679688 84.089844 3.335938 C 83.703125 2.992188 83.253906 2.730469 82.738281 2.542969 C 82.222656 2.34375 81.6875 2.242188 81.128906 2.242188 C 79.925781 2.242188 78.902344 2.542969 78.058594 3.144531 C 77.210938 3.746094 76.394531 4.617188 75.613281 5.742188 L 74.582031 5.035156 C 74.976562 4.421875 75.402344 3.867188 75.847656 3.378906 C 76.289062 2.878906 76.769531 2.457031 77.285156 2.113281 C 77.8125 1.757812 78.402344 1.484375 79.046875 1.296875 C 79.699219 1.113281 80.441406 1.015625 81.257812 1.015625 C 82.054688 1.015625 82.792969 1.144531 83.46875 1.402344 C 84.15625 1.660156 84.738281 2.027344 85.226562 2.5 C 85.726562 2.960938 86.117188 3.503906 86.410156 4.132812 C 86.691406 4.765625 86.835938 5.441406 86.835938 6.175781 L 86.835938 6.21875 C 86.835938 6.878906 86.742188 7.484375 86.558594 8.042969 C 86.386719 8.601562 86.109375 9.171875 85.722656 9.742188 C 85.335938 10.300781 84.847656 10.890625 84.261719 11.503906 C 83.671875 12.105469 82.964844 12.789062 82.136719 13.546875 L 76.40625 18.746094 L 87.03125 18.746094 L 87.03125 20.101562 L 74.195312 20.101562 Z M 74.195312 19.046875 " fill-opacity="1" fill-rule="nonzero"/></g><path fill="#000000" d="M 95.871094 20.421875 C 94.800781 20.421875 93.796875 20.242188 92.867188 19.886719 C 91.949219 19.53125 91.15625 19.019531 90.484375 18.359375 C 89.808594 17.6875 89.289062 16.898438 88.917969 15.996094 C 88.542969 15.09375 88.359375 14.082031 88.359375 12.964844 L 88.359375 12.921875 C 88.359375 11.90625 88.53125 10.941406 88.875 10.019531 C 89.21875 9.109375 89.699219 8.3125 90.335938 7.636719 C 90.960938 6.949219 91.707031 6.410156 92.566406 6.023438 C 93.4375 5.625 94.402344 5.421875 95.464844 5.421875 C 96.667969 5.421875 97.703125 5.636719 98.578125 6.066406 C 99.445312 6.496094 100.175781 7.078125 100.765625 7.808594 C 101.351562 8.527344 101.78125 9.355469 102.054688 10.300781 C 102.339844 11.246094 102.484375 12.230469 102.484375 13.246094 C 102.484375 13.40625 102.472656 13.578125 102.460938 13.761719 C 102.445312 13.933594 102.429688 14.121094 102.417969 14.320312 L 92.394531 14.320312 C 92.59375 15.253906 93 15.953125 93.617188 16.425781 C 94.246094 16.898438 95.011719 17.136719 95.914062 17.136719 C 96.601562 17.136719 97.207031 17.023438 97.738281 16.792969 C 98.28125 16.566406 98.839844 16.191406 99.414062 15.671875 L 101.753906 17.738281 C 101.066406 18.585938 100.234375 19.242188 99.265625 19.714844 C 98.304688 20.1875 97.171875 20.421875 95.871094 20.421875 Z M 98.492188 11.761719 C 98.371094 10.847656 98.050781 10.105469 97.523438 9.546875 C 97.011719 8.988281 96.324219 8.710938 95.464844 8.710938 C 94.605469 8.710938 93.90625 8.988281 93.382812 9.546875 C 92.851562 10.097656 92.507812 10.832031 92.351562 11.761719 Z M 98.492188 11.761719 " fill-opacity="1" fill-rule="nonzero"/><path fill="#000000" d="M 108.050781 20.378906 C 107.375 20.378906 106.742188 20.285156 106.140625 20.101562 C 105.539062 19.902344 105.007812 19.617188 104.550781 19.242188 C 104.105469 18.871094 103.757812 18.414062 103.5 17.867188 C 103.242188 17.308594 103.113281 16.671875 103.113281 15.953125 L 103.113281 15.910156 C 103.113281 15.125 103.253906 14.441406 103.542969 13.867188 C 103.828125 13.300781 104.21875 12.824219 104.722656 12.449219 C 105.238281 12.0625 105.84375 11.777344 106.546875 11.589844 C 107.261719 11.40625 108.050781 11.3125 108.910156 11.3125 C 109.648438 11.3125 110.292969 11.371094 110.839844 11.484375 C 111.382812 11.585938 111.914062 11.71875 112.429688 11.890625 L 112.429688 11.65625 C 112.429688 10.792969 112.171875 10.144531 111.65625 9.699219 C 111.140625 9.257812 110.367188 9.03125 109.339844 9.03125 C 108.550781 9.03125 107.859375 9.097656 107.257812 9.226562 C 106.65625 9.355469 106.023438 9.546875 105.367188 9.804688 L 104.359375 6.691406 C 105.140625 6.347656 105.96875 6.066406 106.828125 5.851562 C 107.6875 5.636719 108.722656 5.527344 109.941406 5.527344 C 111.066406 5.527344 112.027344 5.675781 112.816406 5.960938 C 113.617188 6.234375 114.277344 6.625 114.789062 7.140625 C 115.332031 7.6875 115.726562 8.34375 115.972656 9.117188 C 116.230469 9.890625 116.359375 10.769531 116.359375 11.742188 L 116.359375 20.101562 L 112.410156 20.101562 L 112.410156 18.53125 C 111.902344 19.089844 111.304688 19.542969 110.605469 19.886719 C 109.902344 20.214844 109.050781 20.378906 108.050781 20.378906 Z M 109.296875 17.542969 C 110.25 17.542969 111.023438 17.316406 111.613281 16.855469 C 112.199219 16.382812 112.492188 15.777344 112.492188 15.027344 L 112.492188 14.296875 C 112.132812 14.140625 111.730469 14.011719 111.292969 13.910156 C 110.847656 13.816406 110.375 13.761719 109.875 13.761719 C 109 13.761719 108.3125 13.933594 107.816406 14.277344 C 107.308594 14.609375 107.0625 15.09375 107.0625 15.738281 L 107.0625 15.804688 C 107.0625 16.363281 107.261719 16.792969 107.664062 17.09375 C 108.078125 17.394531 108.621094 17.542969 109.296875 17.542969 Z M 109.296875 17.542969 " fill-opacity="1" fill-rule="nonzero"/><path fill="#000000" d="M 118.332031 5.679688 L 122.414062 5.679688 L 122.414062 8.601562 C 122.824219 7.613281 123.390625 6.828125 124.109375 6.238281 C 124.820312 5.636719 125.789062 5.367188 127.007812 5.421875 L 127.007812 9.699219 L 126.792969 9.699219 C 125.429688 9.699219 124.355469 10.117188 123.570312 10.945312 C 122.796875 11.761719 122.414062 13.039062 122.414062 14.769531 L 122.414062 20.101562 L 118.332031 20.101562 Z M 118.332031 5.679688 " fill-opacity="1" fill-rule="nonzero"/><path fill="#000000" d="M 128.023438 5.679688 L 132.101562 5.679688 L 132.101562 7.742188 C 132.328125 7.429688 132.578125 7.136719 132.851562 6.863281 C 133.136719 6.578125 133.453125 6.324219 133.796875 6.109375 C 134.140625 5.894531 134.511719 5.734375 134.914062 5.613281 C 135.328125 5.484375 135.800781 5.421875 136.332031 5.421875 C 137.875 5.421875 139.066406 5.90625 139.914062 6.863281 C 140.773438 7.808594 141.203125 9.113281 141.203125 10.773438 L 141.203125 20.101562 L 137.125 20.101562 L 137.125 12.0625 C 137.125 11.089844 136.910156 10.359375 136.480469 9.871094 C 136.050781 9.386719 135.441406 9.140625 134.65625 9.140625 C 133.867188 9.140625 133.246094 9.386719 132.789062 9.871094 C 132.328125 10.359375 132.101562 11.089844 132.101562 12.0625 L 132.101562 20.101562 L 128.023438 20.101562 Z M 128.023438 5.679688 " fill-opacity="1" fill-rule="nonzero"/><path fill="#000000" d="M 71.511719 31.816406 L 73.058594 31.816406 L 74.34375 41.574219 L 74.539062 41.574219 L 76.449219 31.816406 L 78.378906 31.816406 L 80.289062 41.574219 L 80.503906 41.574219 L 81.792969 31.816406 L 83.296875 31.816406 L 81.558594 43.101562 L 79.304688 43.101562 L 77.5 33.664062 L 77.328125 33.664062 L 75.503906 43.101562 L 73.230469 43.101562 Z M 71.511719 31.816406 " fill-opacity="1" fill-rule="nonzero"/><path fill="#000000" d="M 93.492188 43.101562 C 92.816406 43.101562 92.332031 42.929688 92.03125 42.585938 C 91.742188 42.230469 91.5625 41.789062 91.496094 41.273438 L 91.386719 41.273438 C 91.128906 41.917969 90.726562 42.429688 90.183594 42.800781 C 89.636719 43.171875 88.90625 43.359375 87.996094 43.359375 C 86.820312 43.359375 85.882812 43.058594 85.183594 42.457031 C 84.480469 41.84375 84.132812 41.003906 84.132812 39.941406 C 84.132812 38.882812 84.507812 38.070312 85.269531 37.511719 C 86.042969 36.941406 87.277344 36.652344 88.984375 36.652344 L 91.386719 36.652344 L 91.386719 35.535156 C 91.386719 34.707031 91.152344 34.085938 90.679688 33.664062 C 90.21875 33.25 89.5625 33.042969 88.703125 33.042969 C 87.941406 33.042969 87.320312 33.191406 86.835938 33.492188 C 86.363281 33.792969 85.976562 34.195312 85.675781 34.695312 L 84.496094 33.835938 C 84.652344 33.535156 84.851562 33.25 85.097656 32.976562 C 85.339844 32.707031 85.640625 32.460938 86 32.246094 C 86.371094 32.03125 86.78125 31.871094 87.246094 31.753906 C 87.714844 31.625 88.238281 31.558594 88.8125 31.558594 C 90.125 31.558594 91.171875 31.898438 91.945312 32.570312 C 92.730469 33.246094 93.125 34.175781 93.125 35.363281 L 93.125 41.574219 L 94.691406 41.574219 L 94.691406 43.101562 Z M 88.296875 41.898438 C 88.753906 41.898438 89.164062 41.847656 89.542969 41.746094 C 89.910156 41.632812 90.234375 41.484375 90.507812 41.296875 C 90.773438 41.113281 90.988281 40.898438 91.152344 40.648438 C 91.304688 40.390625 91.386719 40.113281 91.386719 39.8125 L 91.386719 37.964844 L 88.984375 37.964844 C 87.9375 37.964844 87.167969 38.113281 86.6875 38.414062 C 86.214844 38.707031 85.976562 39.117188 85.976562 39.660156 L 85.976562 40.132812 C 85.976562 40.710938 86.183594 41.144531 86.601562 41.445312 C 87.011719 41.746094 87.578125 41.898438 88.296875 41.898438 Z M 88.296875 41.898438 " fill-opacity="1" fill-rule="nonzero"/><path fill="#000000" d="M 96.277344 41.617188 L 100.207031 41.617188 L 100.207031 28.421875 L 96.277344 28.421875 L 96.277344 26.917969 L 101.964844 26.917969 L 101.964844 41.617188 L 105.894531 41.617188 L 105.894531 43.101562 L 96.277344 43.101562 Z M 96.277344 41.617188 " fill-opacity="1" fill-rule="nonzero"/><path fill="#000000" d="M 108.125 41.617188 L 112.054688 41.617188 L 112.054688 28.421875 L 108.125 28.421875 L 108.125 26.917969 L 113.8125 26.917969 L 113.8125 41.617188 L 117.742188 41.617188 L 117.742188 43.101562 L 108.125 43.101562 Z M 108.125 41.617188 " fill-opacity="1" fill-rule="nonzero"/><path fill="#000000" d="M 124.976562 43.359375 C 124.160156 43.359375 123.429688 43.21875 122.785156 42.949219 C 122.140625 42.679688 121.589844 42.285156 121.132812 41.769531 C 120.671875 41.242188 120.316406 40.617188 120.058594 39.898438 C 119.8125 39.183594 119.695312 38.382812 119.695312 37.492188 C 119.695312 36.589844 119.824219 35.769531 120.082031 35.039062 C 120.339844 34.308594 120.6875 33.6875 121.132812 33.171875 C 121.589844 32.65625 122.128906 32.261719 122.765625 31.988281 C 123.390625 31.703125 124.09375 31.558594 124.867188 31.558594 C 125.625 31.558594 126.3125 31.703125 126.929688 31.988281 C 127.539062 32.261719 128.070312 32.644531 128.515625 33.128906 C 128.957031 33.617188 129.292969 34.195312 129.527344 34.867188 C 129.75 35.53125 129.867188 36.261719 129.867188 37.0625 L 129.867188 37.898438 L 121.539062 37.898438 L 121.539062 38.414062 C 121.539062 38.921875 121.617188 39.382812 121.777344 39.8125 C 121.933594 40.230469 122.164062 40.597656 122.464844 40.910156 C 122.765625 41.210938 123.128906 41.445312 123.558594 41.617188 C 123.988281 41.777344 124.460938 41.855469 124.976562 41.855469 C 125.730469 41.855469 126.382812 41.683594 126.929688 41.339844 C 127.488281 40.984375 127.914062 40.5 128.214844 39.898438 L 129.503906 40.757812 C 129.160156 41.519531 128.601562 42.144531 127.828125 42.628906 C 127.058594 43.109375 126.101562 43.359375 124.976562 43.359375 Z M 124.867188 33 C 124.394531 33 123.949219 33.09375 123.535156 33.277344 C 123.132812 33.449219 122.785156 33.6875 122.484375 33.988281 C 122.183594 34.289062 121.949219 34.648438 121.777344 35.0625 C 121.617188 35.480469 121.539062 35.9375 121.539062 36.4375 L 121.539062 36.589844 L 128 36.589844 L 128 36.351562 C 128 35.851562 127.921875 35.402344 127.765625 34.996094 C 127.605469 34.582031 127.390625 34.234375 127.121094 33.945312 C 126.863281 33.644531 126.542969 33.417969 126.15625 33.257812 C 125.769531 33.085938 125.339844 33 124.867188 33 Z M 124.867188 33 " fill-opacity="1" fill-rule="nonzero"/><path fill="#000000" d="M 137.1875 43.101562 C 136.328125 43.101562 135.695312 42.863281 135.296875 42.390625 C 134.894531 41.90625 134.695312 41.285156 134.695312 40.519531 L 134.695312 33.300781 L 130.941406 33.300781 L 130.941406 31.816406 L 133.730469 31.816406 C 134.101562 31.816406 134.363281 31.746094 134.523438 31.601562 C 134.679688 31.445312 134.761719 31.171875 134.761719 30.785156 L 134.761719 27.839844 L 136.433594 27.839844 L 136.433594 31.816406 L 141.566406 31.816406 L 141.566406 33.300781 L 136.433594 33.300781 L 136.433594 41.617188 L 141.566406 41.617188 L 141.566406 43.101562 Z M 137.1875 43.101562 " fill-opacity="1" fill-rule="nonzero"/><g fill="#000000" fill-opacity="1"><g transform="translate(42.214933, 33.018807)"><g><path d="M 1.578125 -4.1875 C 1.753906 -4.488281 2.007812 -4.734375 2.34375 -4.921875 C 2.675781 -5.117188 3.0625 -5.21875 3.5 -5.21875 C 3.957031 -5.21875 4.367188 -5.109375 4.734375 -4.890625 C 5.109375 -4.671875 5.398438 -4.363281 5.609375 -3.96875 C 5.828125 -3.570312 5.9375 -3.113281 5.9375 -2.59375 C 5.9375 -2.070312 5.828125 -1.609375 5.609375 -1.203125 C 5.398438 -0.796875 5.109375 -0.476562 4.734375 -0.25 C 4.367188 -0.03125 3.957031 0.078125 3.5 0.078125 C 3.050781 0.078125 2.660156 -0.015625 2.328125 -0.203125 C 1.992188 -0.398438 1.742188 -0.648438 1.578125 -0.953125 L 1.578125 0 L 0.71875 0 L 0.71875 -6.9375 L 1.578125 -6.9375 Z M 5.0625 -2.59375 C 5.0625 -2.976562 4.984375 -3.3125 4.828125 -3.59375 C 4.671875 -3.882812 4.457031 -4.101562 4.1875 -4.25 C 3.925781 -4.40625 3.632812 -4.484375 3.3125 -4.484375 C 3 -4.484375 2.707031 -4.40625 2.4375 -4.25 C 2.175781 -4.09375 1.96875 -3.867188 1.8125 -3.578125 C 1.65625 -3.296875 1.578125 -2.960938 1.578125 -2.578125 C 1.578125 -2.191406 1.65625 -1.851562 1.8125 -1.5625 C 1.96875 -1.269531 2.175781 -1.046875 2.4375 -0.890625 C 2.707031 -0.742188 3 -0.671875 3.3125 -0.671875 C 3.632812 -0.671875 3.925781 -0.742188 4.1875 -0.890625 C 4.457031 -1.046875 4.671875 -1.269531 4.828125 -1.5625 C 4.984375 -1.851562 5.0625 -2.195312 5.0625 -2.59375 Z M 5.0625 -2.59375 "/></g></g></g><g fill="#000000" fill-opacity="1"><g transform="translate(48.555945, 33.018807)"><g><path d="M 5.40625 -2.765625 C 5.40625 -2.597656 5.394531 -2.425781 5.375 -2.25 L 1.28125 -2.25 C 1.3125 -1.738281 1.484375 -1.34375 1.796875 -1.0625 C 2.109375 -0.78125 2.488281 -0.640625 2.9375 -0.640625 C 3.3125 -0.640625 3.617188 -0.722656 3.859375 -0.890625 C 4.109375 -1.066406 4.285156 -1.296875 4.390625 -1.578125 L 5.3125 -1.578125 C 5.164062 -1.085938 4.882812 -0.6875 4.46875 -0.375 C 4.0625 -0.0703125 3.550781 0.078125 2.9375 0.078125 C 2.457031 0.078125 2.023438 -0.03125 1.640625 -0.25 C 1.253906 -0.46875 0.953125 -0.773438 0.734375 -1.171875 C 0.515625 -1.578125 0.40625 -2.046875 0.40625 -2.578125 C 0.40625 -3.109375 0.507812 -3.570312 0.71875 -3.96875 C 0.9375 -4.375 1.234375 -4.679688 1.609375 -4.890625 C 1.992188 -5.109375 2.4375 -5.21875 2.9375 -5.21875 C 3.425781 -5.21875 3.859375 -5.109375 4.234375 -4.890625 C 4.609375 -4.679688 4.894531 -4.390625 5.09375 -4.015625 C 5.300781 -3.648438 5.40625 -3.234375 5.40625 -2.765625 Z M 4.53125 -2.9375 C 4.53125 -3.269531 4.457031 -3.550781 4.3125 -3.78125 C 4.164062 -4.019531 3.96875 -4.195312 3.71875 -4.3125 C 3.476562 -4.4375 3.207031 -4.5 2.90625 -4.5 C 2.476562 -4.5 2.109375 -4.359375 1.796875 -4.078125 C 1.492188 -3.804688 1.320312 -3.425781 1.28125 -2.9375 Z M 4.53125 -2.9375 "/></g></g></g><g fill="#000000" fill-opacity="1"><g transform="translate(54.371665, 33.018807)"><g><path d="M 1.765625 -4.4375 L 1.765625 -1.40625 C 1.765625 -1.15625 1.816406 -0.976562 1.921875 -0.875 C 2.023438 -0.769531 2.207031 -0.71875 2.46875 -0.71875 L 3.109375 -0.71875 L 3.109375 0 L 2.328125 0 C 1.859375 0 1.503906 -0.109375 1.265625 -0.328125 C 1.023438 -0.546875 0.90625 -0.90625 0.90625 -1.40625 L 0.90625 -4.4375 L 0.25 -4.4375 L 0.25 -5.140625 L 0.90625 -5.140625 L 0.90625 -6.4375 L 1.765625 -6.4375 L 1.765625 -5.140625 L 3.109375 -5.140625 L 3.109375 -4.4375 Z M 1.765625 -4.4375 "/></g></g></g><g fill="#000000" fill-opacity="1"><g transform="translate(57.786056, 33.018807)"><g><path d="M 0.40625 -2.59375 C 0.40625 -3.113281 0.507812 -3.570312 0.71875 -3.96875 C 0.9375 -4.363281 1.226562 -4.671875 1.59375 -4.890625 C 1.96875 -5.109375 2.382812 -5.21875 2.84375 -5.21875 C 3.289062 -5.21875 3.679688 -5.117188 4.015625 -4.921875 C 4.347656 -4.734375 4.59375 -4.492188 4.75 -4.203125 L 4.75 -5.140625 L 5.609375 -5.140625 L 5.609375 0 L 4.75 0 L 4.75 -0.953125 C 4.582031 -0.648438 4.332031 -0.398438 4 -0.203125 C 3.664062 -0.015625 3.273438 0.078125 2.828125 0.078125 C 2.367188 0.078125 1.957031 -0.03125 1.59375 -0.25 C 1.226562 -0.476562 0.9375 -0.796875 0.71875 -1.203125 C 0.507812 -1.609375 0.40625 -2.070312 0.40625 -2.59375 Z M 4.75 -2.578125 C 4.75 -2.960938 4.671875 -3.296875 4.515625 -3.578125 C 4.359375 -3.867188 4.144531 -4.09375 3.875 -4.25 C 3.613281 -4.40625 3.328125 -4.484375 3.015625 -4.484375 C 2.691406 -4.484375 2.398438 -4.40625 2.140625 -4.25 C 1.878906 -4.101562 1.671875 -3.882812 1.515625 -3.59375 C 1.359375 -3.3125 1.28125 -2.976562 1.28125 -2.59375 C 1.28125 -2.195312 1.359375 -1.851562 1.515625 -1.5625 C 1.671875 -1.269531 1.878906 -1.046875 2.140625 -0.890625 C 2.398438 -0.742188 2.691406 -0.671875 3.015625 -0.671875 C 3.328125 -0.671875 3.613281 -0.742188 3.875 -0.890625 C 4.144531 -1.046875 4.359375 -1.269531 4.515625 -1.5625 C 4.671875 -1.851562 4.75 -2.191406 4.75 -2.578125 Z M 4.75 -2.578125 "/></g></g></g></svg>